<svg
        id="Lager_1"
        data-name="Lager 1"
        xmlns="http://www.w3.org/2000/svg"
        viewBox="0 0 699.36 192.6"
      >
        <defs>
          <style>
            .cls-1 {
              fill: #fff;
            }
          </style>
        </defs>
        <path
          class="cls-1"
          d="M126.38,75.46l-.09,0c-2.57-1.14-5.51-1.1-8.35-1-4.45.06-7.24,0-8.48-2.77-.95-2.17-1.75-4.69-2.61-7.35-2.85-9-6.41-20.07-18.16-20.72h-.12a50.08,50.08,0,0,0-5.77.33c-19,2.19-39.27,16.22-39.27,49,0,10.71,1.95,20,5.78,27.59a42.72,42.72,0,0,0,3.14,5.24l.11.14c1.53,1.85,3,3.91,4.59,6.1,5.76,8,12.3,17.1,23.6,17.13l1.37,0c14.61,0,30.25-8.61,42.1-23.27l.07-.09a42.39,42.39,0,0,0,3.21-5.18,39.31,39.31,0,0,0,4.8-13.45c.5-2.19.72-9.24.87-11.58C133.67,87.94,134.23,79.38,126.38,75.46Zm-60.77,44a106.7,106.7,0,0,0-3.1-10.24s-.71-2.43-.92-3.54a68.74,68.74,0,0,1-1.31-12.51c0-19,7.59-31.2,22.18-33.77a32.37,32.37,0,0,1,5.63-.54c10.84.54,22,26.92,25.71,41.71a14.71,14.71,0,0,1,.29,5.91c-2.66,16.74-15.75,31-31.18,33.84C72.17,141.74,69.09,133,65.61,119.42Z"
        />
        <path
          class="cls-1"
          d="M168,96.17c0-14.72,9.46-21.63,19.68-21.63s19.67,6.91,19.67,21.63-8.76,21.9-19.67,21.9C176.16,118.07,168,110.9,168,96.17Zm33.7.13c0-12.12-7-16.82-14-16.82s-14,4.7-14,16.82c0,11.93,6.28,16.82,14,16.82C195.07,113.12,201.67,108.23,201.67,96.3Z"
        />
        <path
          class="cls-1"
          d="M218,96.87c0-14.34,10.21-22.33,21.38-22.33,8.25,0,11.93,3.74,11.93,4.69s-1.52,2.86-2.28,2.86c-1,0-3.11-2.48-9.46-2.48-7.93,0-15.61,5.84-15.61,17.14,0,11.55,7.62,16.18,16,16.18,8.06,0,12.5-4.45,13.39-4.45.38,0,.57.2.57.64a9.23,9.23,0,0,1-.88,3.68c-.64,1.33-6.35,5.27-13.77,5.27C228.3,118.07,218,111.28,218,96.87Z"
        />
        <path
          class="cls-1"
          d="M267.09,116.23V76.37c0-.88.38-1.33,1.34-1.33H291c1.59,0,2,1.46,2,4.57,0,.76-.19,1.08-.63,1.08a70.25,70.25,0,0,0-9.65-.89h-9.52c-.5,0-.69.19-.69.7V93.25c0,.32.12.39.44.39h15c.51,0,.89.5.89,2.47s-.38,2.48-.95,2.48h-15c-.32,0-.44.19-.44.5v13c0,.45.19.7.69.7h10.6a83.08,83.08,0,0,0,10.16-.89c.44,0,.63.32.63,1.08,0,3.11-.44,4.57-2,4.57H268.43C267.47,117.56,267.09,117.12,267.09,116.23Z"
        />
        <path
          class="cls-1"
          d="M315.52,108.3c-.32,0-.38.06-.51.38L312,116.61c-.25.76-.76,1-3.11,1-2.53,0-2.85-.32-2.79-.82l15.42-40.43c.32-1,1-1.27,3.3-1.27s3,.26,3.37,1.27l15.42,40.43c.06.5-.32.82-2.86.82-2.28,0-2.79-.19-3.11-1l-3-7.93a.5.5,0,0,0-.58-.38Zm16.69-4.57a.49.49,0,0,0,.38-.7l-7.43-19.67c-.06-.2-.12-.45-.38-.45s-.31.25-.38.45L317,103.09c-.07.26.06.64.38.64Z"
        />
        <path
          class="cls-1"
          d="M357.09,116.61V75.93c0-.51.38-.89,2-.89,2,0,2.41.19,2.73.64L385.52,108v-32c0-.51.38-.89,2.54-.89s2.54.32,2.54.89v40.68c0,.51-.64,1-2.16,1-2,0-2.29-.25-2.6-.7L362.17,84.94v31.67c0,.57-.38,1-2.54,1S357.09,117.18,357.09,116.61Z"
        />
        <path
          class="cls-1"
          d="M434,108.3c-.32,0-.38.06-.51.38l-3.05,7.93c-.25.76-.76,1-3.11,1-2.53,0-2.85-.32-2.79-.82l15.42-40.43c.32-1,1-1.27,3.3-1.27s3,.26,3.37,1.27L462,116.74c.06.5-.32.82-2.86.82-2.28,0-2.79-.19-3.11-1l-3-7.93a.5.5,0,0,0-.58-.38Zm16.69-4.57a.5.5,0,0,0,.38-.7l-7.43-19.67c-.06-.2-.12-.45-.38-.45s-.31.25-.38.45l-7.42,19.73c-.07.26.06.64.38.64Z"
        />
        <path
          class="cls-1"
          d="M471.21,96.87c0-14.34,10.21-22.33,21.38-22.33,8.25,0,11.93,3.74,11.93,4.69s-1.52,2.86-2.28,2.86c-1,0-3.11-2.48-9.46-2.48-7.93,0-15.61,5.84-15.61,17.14,0,11.55,7.62,16.18,16,16.18,8.06,0,12.5-4.45,13.39-4.45.38,0,.57.2.57.64a9.11,9.11,0,0,1-.89,3.68c-.63,1.33-6.34,5.27-13.77,5.27C481.49,118.07,471.21,111.28,471.21,96.87Z"
        />
        <path
          class="cls-1"
          d="M529.59,116.61V80.44c0-.32-.12-.51-.44-.51H518.87c-.57,0-1-.57-1-2.54s.38-2.35.89-2.35H546c.5,0,.88.45.88,2.35s-.38,2.54-1,2.54H535.5c-.32,0-.39.19-.39.51v36.17c0,.57-.57,1-2.72,1S529.59,117.18,529.59,116.61Z"
        />
        <path
          class="cls-1"
          d="M560.38,116.61V75.93c0-.57.5-.89,2.73-.89s2.79.38,2.79.89v40.68c0,.57-.64,1-2.79,1S560.38,117.18,560.38,116.61Z"
        />
        <path
          class="cls-1"
          d="M594.27,116.61,579,75.93c-.25-.51.26-.89,2.48-.89s3.43.38,3.62.89l12,34.33,12.06-34.33c.19-.51,1.4-.89,3.55-.89s2.73.38,2.54.89l-15.35,40.68c-.2.51-.58,1-2.8,1S594.46,117.12,594.27,116.61Z"
        />
        <path
          class="cls-1"
          d="M628.35,116.23V76.37c0-.88.38-1.33,1.33-1.33h22.53c1.59,0,2,1.46,2,4.57,0,.76-.19,1.08-.63,1.08A70.46,70.46,0,0,0,644,79.8h-9.52c-.51,0-.7.19-.7.7V93.25c0,.32.13.39.45.39h15c.51,0,.89.5.89,2.47s-.38,2.48-1,2.48h-15c-.32,0-.45.19-.45.5v13c0,.45.19.7.7.7H645a82.59,82.59,0,0,0,10.15-.89c.45,0,.64.32.64,1.08,0,3.11-.45,4.57-2,4.57H629.68C628.73,117.56,628.35,117.12,628.35,116.23Z"
        />
      </svg>